<?xml version="1.0" encoding="UTF-8" standalone="no"?>
<!-- Created with Inkscape (http://www.inkscape.org/) -->

<svg
   xmlns:dc="http://purl.org/dc/elements/1.1/"
   xmlns:cc="http://creativecommons.org/ns#"
   xmlns:rdf="http://www.w3.org/1999/02/22-rdf-syntax-ns#"
   xmlns:svg="http://www.w3.org/2000/svg"
   xmlns="http://www.w3.org/2000/svg"
   xmlns:sodipodi="http://sodipodi.sourceforge.net/DTD/sodipodi-0.dtd"
   xmlns:inkscape="http://www.inkscape.org/namespaces/inkscape"
   width="800"
   height="600"
   viewBox="0 0 799.99999 600.00002"
   id="svg2"
   version="1.1"
   inkscape:version="0.91 r13725"
   sodipodi:docname="stimuli.svg">
  <defs
     id="defs4" />
  <sodipodi:namedview
     id="base"
     pagecolor="#ffffff"
     bordercolor="#666666"
     borderopacity="1.0"
     inkscape:pageopacity="0.0"
     inkscape:pageshadow="2"
     inkscape:zoom="0.7"
     inkscape:cx="412.49297"
     inkscape:cy="343.70741"
     inkscape:document-units="px"
     inkscape:current-layer="layer1"
     showgrid="false"
     units="px"
     inkscape:window-width="1920"
     inkscape:window-height="1024"
     inkscape:window-x="0"
     inkscape:window-y="24"
     inkscape:window-maximized="1" />
  <metadata
     id="metadata7">
    <rdf:RDF>
      <cc:Work
         rdf:about="">
        <dc:format>image/svg+xml</dc:format>
        <dc:type
           rdf:resource="http://purl.org/dc/dcmitype/StillImage" />
        <dc:title />
      </cc:Work>
    </rdf:RDF>
  </metadata>
  <g
     inkscape:label="Layer 1"
     inkscape:groupmode="layer"
     id="layer1"
     transform="translate(0,-452.36203)">
    <rect
       style="fill:#000000;fill-opacity:1;stroke:none;stroke-width:10;stroke-miterlimit:4;stroke-dasharray:none"
       id="rect4231"
       width="574.28571"
       height="397.14285"
       x="1095.7142"
       y="589.50488"
       inkscape:export-filename="instruction.png"
       inkscape:export-xdpi="90"
       inkscape:export-ydpi="90" />
    <rect
       y="485.3002"
       x="207.72519"
       height="115.88987"
       width="120.94061"
       id="rect4154"
       style="fill:none;fill-opacity:1;stroke:#ffff00;stroke-width:7.28783083;stroke-miterlimit:4;stroke-dasharray:none"
       rx="21.642008"
       ry="20.103344"
       inkscape:export-xdpi="90"
       inkscape:export-ydpi="90" />
    <rect
       style="fill:#000000;fill-opacity:1;stroke:none;stroke-width:6;stroke-miterlimit:4;stroke-dasharray:none"
       id="rect4152"
       width="95.964478"
       height="98.994957"
       x="88.893425"
       y="494.75781"
       inkscape:export-filename="cross.png"
       inkscape:export-xdpi="90"
       inkscape:export-ydpi="90" />
    <g
       id="g4148"
       transform="matrix(0.70710678,0.70710678,-0.70710678,0.70710678,385.58957,-41.810675)"
       inkscape:export-filename="cross.png"
       inkscape:export-xdpi="90"
       inkscape:export-ydpi="90">
      <rect
         ry="11.616755"
         rx="11.616755"
         y="533.14362"
         x="227.28432"
         height="112.12693"
         width="23.233509"
         id="rect4144"
         style="fill:#ffff00;fill-opacity:1;stroke:none;stroke-width:6;stroke-miterlimit:4;stroke-dasharray:none" />
      <rect
         transform="matrix(0,1,-1,0,0,0)"
         style="fill:#ffff00;fill-opacity:1;stroke:none;stroke-width:6;stroke-miterlimit:4;stroke-dasharray:none"
         id="rect4146"
         width="23.233509"
         height="112.12693"
         x="577.59033"
         y="-294.96454"
         rx="11.616755"
         ry="11.616755" />
    </g>
    <rect
       y="615.97614"
       x="88.893425"
       height="98.994957"
       width="95.964478"
       id="rect4156"
       style="fill:#000000;fill-opacity:1;stroke:none;stroke-width:6;stroke-miterlimit:4;stroke-dasharray:none"
       inkscape:export-filename="question.png"
       inkscape:export-xdpi="90"
       inkscape:export-ydpi="90" />
    <text
       xml:space="preserve"
       style="font-style:normal;font-variant:normal;font-weight:bold;font-stretch:normal;font-size:107.03375244px;line-height:125%;font-family:Caladea;-inkscape-font-specification:'Caladea, Bold';text-align:start;letter-spacing:0px;word-spacing:0px;writing-mode:lr-tb;text-anchor:start;fill:#ffff00;fill-opacity:1;stroke:none;stroke-width:1px;stroke-linecap:butt;stroke-linejoin:miter;stroke-opacity:1"
       x="101.72505"
       y="746.65216"
       id="text4158"
       sodipodi:linespacing="125%"
       transform="scale(1.0715624,0.93321676)"
       inkscape:export-filename="question.png"
       inkscape:export-xdpi="90"
       inkscape:export-ydpi="90"><tspan
         sodipodi:role="line"
         id="tspan4160"
         x="101.72505"
         y="746.65216"
         style="font-style:normal;font-variant:normal;font-weight:bold;font-stretch:normal;font-size:107.03375244px;line-height:125%;font-family:Caladea;-inkscape-font-specification:'Caladea, Bold';text-align:start;writing-mode:lr-tb;text-anchor:start">?</tspan></text>
    <rect
       ry="51.643925"
       rx="51.643925"
       style="fill:none;fill-opacity:1;stroke:#ffff00;stroke-width:10;stroke-miterlimit:4;stroke-dasharray:none"
       id="rect4181"
       width="610.20581"
       height="536.46472"
       x="374.22467"
       y="481.08386"
       inkscape:export-filename="frame.png"
       inkscape:export-xdpi="90"
       inkscape:export-ydpi="90" />
    <rect
       style="color:#000000;clip-rule:nonzero;display:inline;overflow:visible;visibility:visible;opacity:1;isolation:auto;mix-blend-mode:normal;color-interpolation:sRGB;color-interpolation-filters:linearRGB;solid-color:#000000;solid-opacity:1;fill:#ffffff;fill-opacity:1;fill-rule:nonzero;stroke:none;stroke-width:10;stroke-linecap:round;stroke-linejoin:miter;stroke-miterlimit:4;stroke-dasharray:none;stroke-dashoffset:0;stroke-opacity:1;marker:none;color-rendering:auto;image-rendering:auto;shape-rendering:auto;text-rendering:auto;enable-background:accumulate"
       id="rect3564"
       width="80"
       height="76.021492"
       x="95.121773"
       y="741.56006"
       inkscape:export-filename="exiticon.png"
       inkscape:export-xdpi="90"
       inkscape:export-ydpi="90" />
    <g
       id="g5653"
       transform="matrix(-0.62608076,0,0,0.62451209,400.54876,479.47069)"
       inkscape:export-filename="exiticon.png"
       inkscape:export-xdpi="90"
       inkscape:export-ydpi="90">
      <path
         style="fill:#269463"
         inkscape:connector-curvature="0"
         id="path3495"
         d="m 471.9,510.8 -3.2,-8.5 c -1.4,-3.5 -4.6,-5.9 -8.6,-5.9 l -1.4,0 0,-73.2 -69.5,0 0,40.5 9.1,0 10.4,-13 c 2.1,-2.4 5.3,-4 8.8,-4 l 22.2,0 c 3.5,0 6.6,1.9 8.2,5 l 6.6,12.5 c 0.3,0.5 0.5,1.1 0.5,1.9 0,2.2 -1.9,4.2 -4.2,4.2 -1.8,0 -3,-0.8 -3.8,-2.2 l -5.9,-11.4 -9.6,0 7.4,18.4 2.2,23.5 19,0 c 3,0 5.4,1.9 6.6,4.5 l 2.1,5.4 -32.8,0 c -2.4,0 -4.5,-1.8 -4.6,-4.2 l -2.2,-20.6 -17.6,36.5 c -1,2.1 -3.2,3.5 -5.8,3.5 l -8.5,0 21.6,-44.7 -6.7,-16.8 -6.4,7.8 c -1.6,2.1 -4.3,3.5 -7.2,3.5 l -9.4,0 0,52.8 14.47845,15.14132 -44.54072,0 L 359.9,413.3 l 128.1,0 0,128.1 -14.4,0 -14.9,-14.9 0,-15.7 13.2,0"
         sodipodi:nodetypes="ccsccccccssccsscccccsccscccsccccsccccccccccc" />
      <path
         style="fill:#269463"
         inkscape:connector-curvature="0"
         id="path3497"
         d="m 412,428 0.5,0 0.5,0 0.5,0.1 0.4,0.1 0.4,0.1 0.4,0.1 0.4,0.2 0.4,0.2 0.4,0.2 0.4,0.2 0.4,0.2 0.4,0.2 0.3,0.3 0.3,0.3 0.3,0.3 0.3,0.3 0.3,0.3 0.3,0.3 0.3,0.3 0.3,0.4 0.2,0.4 0.2,0.4 0.2,0.4 0.2,0.4 0.2,0.4 0.1,0.4 0.1,0.4 0.1,0.4 0.1,0.4 0.1,0.5 0,0.5 0,0.5 c 0,5 -4.2,9 -9.1,9 -5,0 -9,-4 -9,-9 0,-5 4.2,-9.2 9.1,-9.2 z" />
      <path
         style="fill:#269463"
         inkscape:connector-curvature="0"
         id="path3499"
         d="m 416,529.8 13.02455,11.62066 -15.06347,0.0402 L 398.6,526.4 l 9,0 c 3.1,0 6.2,1.3 8.4,3.4 z"
         sodipodi:nodetypes="ccccsc" />
    </g>
    <rect
       style="fill:#000000;fill-opacity:1;stroke:none;stroke-width:6;stroke-miterlimit:4;stroke-dasharray:none"
       id="rect4197"
       width="213.14217"
       height="42.426426"
       x="38.385796"
       y="891.7478"
       inkscape:export-filename="welldone.png"
       inkscape:export-xdpi="90"
       inkscape:export-ydpi="90" />
    <text
       xml:space="preserve"
       style="font-style:normal;font-weight:normal;font-size:40px;line-height:125%;font-family:sans-serif;letter-spacing:0px;word-spacing:0px;fill:#00ff00;fill-opacity:1;stroke:none;stroke-width:1px;stroke-linecap:butt;stroke-linejoin:miter;stroke-opacity:1"
       x="40.406105"
       y="925.08282"
       id="text4199"
       sodipodi:linespacing="125%"
       inkscape:export-filename="welldone.png"
       inkscape:export-xdpi="90"
       inkscape:export-ydpi="90"><tspan
         sodipodi:role="line"
         id="tspan4201"
         x="40.406105"
         y="925.08282">Well done!</tspan></text>
    <rect
       y="967.50934"
       x="82.832504"
       height="42.426426"
       width="105.05585"
       id="rect4203"
       style="fill:#000000;fill-opacity:1;stroke:none;stroke-width:6;stroke-miterlimit:4;stroke-dasharray:none"
       inkscape:export-filename="errorfeedback.png"
       inkscape:export-xdpi="90"
       inkscape:export-ydpi="90" />
    <text
       sodipodi:linespacing="125%"
       id="text4205"
       y="1000.8443"
       x="84.852814"
       style="font-style:normal;font-weight:normal;font-size:40px;line-height:125%;font-family:sans-serif;letter-spacing:0px;word-spacing:0px;fill:#ff00ff;fill-opacity:1;stroke:none;stroke-width:1px;stroke-linecap:butt;stroke-linejoin:miter;stroke-opacity:1"
       xml:space="preserve"
       inkscape:export-filename="errorfeedback.png"
       inkscape:export-xdpi="90"
       inkscape:export-ydpi="90"><tspan
         y="1000.8443"
         x="84.852814"
         id="tspan4207"
         sodipodi:role="line">Error</tspan></text>
    <text
       xml:space="preserve"
       style="font-style:normal;font-weight:normal;font-size:40px;line-height:125%;font-family:sans-serif;letter-spacing:0px;word-spacing:0px;fill:#00ff00;fill-opacity:1;stroke:none;stroke-width:1px;stroke-linecap:butt;stroke-linejoin:miter;stroke-opacity:1"
       x="1142.8571"
       y="628.07629"
       id="text4209"
       sodipodi:linespacing="125%"
       inkscape:export-filename="instruction.png"
       inkscape:export-xdpi="90"
       inkscape:export-ydpi="90"><tspan
         sodipodi:role="line"
         id="tspan4211"
         x="1142.8571"
         y="628.07629">In this task, you see</tspan><tspan
         sodipodi:role="line"
         x="1142.8571"
         y="678.07629"
         id="tspan4213">three crosses for 2</tspan><tspan
         sodipodi:role="line"
         x="1142.8571"
         y="728.07629"
         id="tspan4215">seconds.</tspan><tspan
         sodipodi:role="line"
         x="1142.8571"
         y="778.07629"
         id="tspan4217">Then they disappear.</tspan><tspan
         sodipodi:role="line"
         x="1142.8571"
         y="828.07629"
         id="tspan4219">Click the questions marks</tspan><tspan
         sodipodi:role="line"
         x="1142.8571"
         y="878.07629"
         id="tspan4221">under which you think the</tspan><tspan
         sodipodi:role="line"
         x="1142.8571"
         y="928.07629"
         id="tspan4223">crosses are.</tspan><tspan
         sodipodi:role="line"
         x="1142.8571"
         y="978.07629"
         id="tspan4235"
         style="font-style:italic;fill:#ffff00">Press space to start</tspan></text>
    <ellipse
       style="fill:#00ff00;fill-opacity:1;stroke:none;stroke-width:10;stroke-miterlimit:4;stroke-dasharray:none"
       id="path4225"
       cx="1113.5714"
       cy="616.64771"
       rx="9.2857141"
       ry="8.5714283"
       inkscape:export-filename="instruction.png"
       inkscape:export-xdpi="90"
       inkscape:export-ydpi="90" />
    <ellipse
       ry="8.5714283"
       rx="9.2857141"
       cy="760.93341"
       cx="1113.5714"
       id="ellipse4227"
       style="fill:#00ff00;fill-opacity:1;stroke:none;stroke-width:10;stroke-miterlimit:4;stroke-dasharray:none"
       inkscape:export-filename="instruction.png"
       inkscape:export-xdpi="90"
       inkscape:export-ydpi="90" />
    <ellipse
       style="fill:#00ff00;fill-opacity:1;stroke:none;stroke-width:10;stroke-miterlimit:4;stroke-dasharray:none"
       id="ellipse4229"
       cx="1113.5714"
       cy="812.362"
       rx="9.2857141"
       ry="8.5714283"
       inkscape:export-filename="instruction.png"
       inkscape:export-xdpi="90"
       inkscape:export-ydpi="90" />
    <ellipse
       ry="8.5714283"
       rx="9.2857141"
       cy="963.79059"
       cx="1113.5714"
       id="ellipse4233"
       style="fill:#ffff00;fill-opacity:1;stroke:none;stroke-width:10;stroke-miterlimit:4;stroke-dasharray:none"
       inkscape:export-filename="instruction.png"
       inkscape:export-xdpi="90"
       inkscape:export-ydpi="90" />
  </g>
</svg>
